<?xml version="1.0" encoding="UTF-8"?>
<svg width="210mm" height="297mm" version="1.1" viewBox="0 0 744.09448819 1052.3622047" xmlns="http://www.w3.org/2000/svg" xmlns:xlink="http://www.w3.org/1999/xlink">
 <defs>
  <linearGradient id="a">
   <stop stop-color="#d9af8f" offset="0"/>
   <stop stop-color="#d9af8f" stop-opacity="0" offset="1"/>
  </linearGradient>
  <linearGradient id="f" x1="353.81" x2="334.43" y1="658.96" y2="659.37" gradientUnits="userSpaceOnUse">
   <stop stop-color="#ffd5d5" offset="0"/>
   <stop stop-color="#ffd5d5" stop-opacity="0" offset="1"/>
  </linearGradient>
  <linearGradient id="g" x1="346.39" x2="334.43" y1="676.28" y2="675.04" gradientUnits="userSpaceOnUse">
   <stop stop-color="#ffd5d5" offset="0"/>
   <stop stop-color="#ffd5d5" stop-opacity="0" offset="1"/>
  </linearGradient>
  <linearGradient id="h" x1="293.05" x2="168.54" y1="535.96" y2="537.71" gradientTransform="translate(.87477 -2.0411)" gradientUnits="userSpaceOnUse" xlink:href="#a"/>
  <linearGradient id="i" x1="293.05" x2="168.54" y1="535.96" y2="537.71" gradientTransform="matrix(-1 0 0 1 699.64 -2.0411)" gradientUnits="userSpaceOnUse" xlink:href="#a"/>
 </defs>
 <g fill-rule="evenodd">
  <path d="m348.51 186.39c-44.758-0.22612-92.529 1.8127-132.48 23.336-44.237 23.832-77.535 39.095-106.56 110.59-15.676 57.765 4.4552 139.43 7.1277 201.37-5.5063 209.86 35.29 257.1 44.715 437.83 175.44 0.72465 287.24-0.62355 367.2 0 2.4502-160.66 83.307-368.82 38.833-451.25 32.667-69.373 37.554-117.17 19.46-189.75-9.6843-38.849-46.554-94.709-94.322-100.83-23.642-3.0284-26.442-7.2984-36.868 9.2188 3.7215-24.308-4.4315-17.946-14.943-23.339-29.902-15.34-60.975-17.034-92.161-17.192z" fill="#362c22" stroke="#362c22" stroke-linecap="round" stroke-linejoin="round" stroke-width="1.0327px"/>
  <path d="m313.64 741.2 10.183 103.87h43.786l10.183-103.87z" fill="#e7c9ad"/>
  <path d="m112.25 513.57s19.23 46.218 1.8702 48.413c-17.359 2.1951-33.5-23.861-37.591-56.213-4.0909-32.352 7.9489-54.963 25.308-57.158 17.359-2.1951 10.413 64.958 10.413 64.958z" fill="#e7c9ad"/>
  <path d="m581.33 511.54s-19.23 46.218-1.8702 48.413c17.359 2.1951 33.5-23.861 37.591-56.213 4.0909-32.352-7.9489-54.963-25.308-57.158-17.359-2.1951-10.413 64.958-10.413 64.958z" fill="#e7c9ad"/>
  <path d="m296.64 802.3c-54.232 0-97.891 57.231-97.891 128.32v29.569h297.35v-29.569c0-71.091-43.659-128.32-97.891-128.32h-101.56z" fill="#e7c9ad"/>
  <path d="m313.64 741.21 1.6816 17.154c13.152 4.749 24.302 7.2793 32.264 7.2793 6.4664 0 16.366-2.4177 28.492-6.9434l1.7148-17.49h-64.152z" fill="#d9af8f"/>
  <path d="m585.41 517.64c0 130.82-193.9 236.87-236.87 236.87-51.614 0-236.87-106.05-236.87-236.87s106.05-236.87 236.87-236.87 236.87 106.05 236.87 236.87z" fill="#e7c9ad"/>
  <path d="m400.82 516.28c1.001-22.612 3.4835-44.187 19.794-56.082l65.979-24.742 30.115 15.228c7.4131 9.6252 16.392 23.977 19.369 35.081l-58.557-13.196z" fill="#d9af8f"/>
  <path d="m399.3 525.75c0.51093-1.1436 6.4389 0.65472 16.324 3.1399 9.6363 2.4226 23.914 5.6834 39.644 5.6866 6.0616 9e-3 12.399-0.46382 18.833-1.5812 7.4131-1.2875 14.297-3.3156 20.593-5.9338 11.222-4.6537 20.029-10.785 26.666-16.498 3.689-3.1773 6.5161-6.0299 8.8332-8.5216 3.9168-4.2316 5.9799-6.9621 6.7377-6.6174 0.76636 0.34856 0.22055 3.9191-2.8849 9.4103-1.7711 3.1404-4.2999 6.7919-7.7832 10.694-6.3049 7.0656-15.479 14.649-27.724 20.294-6.9014 3.1738-14.524 5.5924-22.722 7.0245-7.1182 1.2436-14.104 1.6442-20.744 1.3977h-1e-5c-17.288-0.66416-31.917-5.3818-41.445-9.5239-9.7064-4.2198-14.758-8.0107-14.329-8.9711z" fill="url(#i)"/>
  <path d="m536.85 493.88c-0.27491 10.195-22.203 34.735-56.194 42.675-33.991 7.9403-80.301-5.5561-81.835-12.827-1.4335-6.7953 33.443-39.756 67.434-47.697 33.991-7.9403 70.829 9.1874 70.595 17.848z" fill="#fff"/>
  <path d="m535.74 492.05c-49.923-49.051-119.68 6.6528-135.6 27.317 49.002-24.336 78.606-37.723 135.6-27.317z" fill="#000080" opacity=".08"/>
  <path d="m495.6 507.12a26.293 26.293 0 0 1 -25.236 26.271 26.293 26.293 0 0 1 -27.264 -24.16 26.293 26.293 0 0 1 23.044 -28.213 26.293 26.293 0 0 1 29.117 21.892" fill="#451b16"/>
  <path d="m445.24 509.42c0.27616 3.6886 1.4396 7.3216 3.6777 10.562 8.4954 15.08 32.813 15.003 41.217-0.1289 2.1803-3.2073 3.3183-6.7934 3.5938-10.434h-48.488z" fill="#792f27"/>
  <path d="m483.89 507.12a14.582 14.582 0 0 1 -13.996 14.57 14.582 14.582 0 0 1 -15.121 -13.399 14.582 14.582 0 0 1 12.78 -15.647 14.582 14.582 0 0 1 16.148 12.141"/>
  <path d="m301.03 516.28c-1.001-22.612-3.4835-44.187-19.794-56.082l-65.979-24.742-30.115 15.228c-7.4131 9.6252-16.392 23.977-19.369 35.081l58.557-13.196z" fill="#d9af8f"/>
  <path d="m301.21 525.75c0.42905 0.96035-4.6223 4.7512-14.329 8.9711-9.5276 4.1421-24.157 8.8597-41.445 9.5239h-1e-5c-6.6396 0.24643-13.625-0.15417-20.744-1.3977-8.1971-1.432-15.82-3.8507-22.722-7.0245-12.245-5.6453-21.419-13.228-27.724-20.294-3.4833-3.9019-6.0121-7.5534-7.7832-10.694-3.1054-5.4912-3.6513-9.0617-2.8849-9.4103 0.75776-0.34465 2.8208 2.3859 6.7377 6.6174 2.3171 2.4917 5.1443 5.3443 8.8332 8.5216 6.637 5.7129 15.444 11.844 26.666 16.498 6.2959 2.6182 13.18 4.6463 20.593 5.9338 6.4336 1.1174 12.771 1.5905 18.833 1.5812 15.73-3e-3 30.008-3.264 39.644-5.6866 9.8851-2.4852 15.813-4.2836 16.324-3.1399z" fill="url(#h)"/>
  <path d="m164.78 493.88c0.27491 10.195 22.203 34.735 56.194 42.675 33.991 7.9403 80.301-5.5561 81.835-12.827 1.4335-6.7953-33.443-39.756-67.434-47.697-33.991-7.9403-70.829 9.1874-70.595 17.848z" fill="#fff"/>
  <path d="m165.39 491.9c49.923-49.051 119.68 6.6528 135.6 27.317-49.002-24.336-78.606-37.723-135.6-27.317z" fill="#000080" opacity=".08"/>
  <path transform="scale(-1,1)" d="m-206.03 507.12a26.293 26.293 0 0 1 -25.236 26.271 26.293 26.293 0 0 1 -27.264 -24.16 26.293 26.293 0 0 1 23.044 -28.213 26.293 26.293 0 0 1 29.117 21.892" fill="#451b16"/>
  <path d="m208.08 509.42c0.27616 3.6886 1.4396 7.3216 3.6777 10.562 8.4954 15.08 32.813 15.003 41.217-0.1289 2.1803-3.2073 3.3183-6.7934 3.5938-10.434h-48.488z" fill="#792f27"/>
  <path transform="scale(-1,1)" d="m-217.74 507.12a14.582 14.582 0 0 1 -13.996 14.57 14.582 14.582 0 0 1 -15.121 -13.399 14.582 14.582 0 0 1 12.78 -15.647 14.582 14.582 0 0 1 16.148 12.141"/>
  <path d="m255.63 497.89a8.6557 8.6557 0 0 1 -8.3078 8.6486 8.6557 8.6557 0 0 1 -8.9756 -7.9534 8.6557 8.6557 0 0 1 7.5862 -9.288 8.6557 8.6557 0 0 1 9.5854 7.2068" fill="#fff"/>
  <path d="m491.63 497.89a8.6557 8.6557 0 0 1 -8.3078 8.6486 8.6557 8.6557 0 0 1 -8.9756 -7.9534 8.6557 8.6557 0 0 1 7.5862 -9.288 8.6557 8.6557 0 0 1 9.5854 7.2068" fill="#fff"/>
  <path d="m413.77 803.91c-12.771 24.713-28.855 48.953-68.146 69.877-31.265-20.146-59.008-41.466-67.494-69.205-45.324 11.279-79.387 63.25-79.387 126.04v29.568h296.65v-44.918c-5.1456-57.071-38.636-102.43-81.625-111.37z" fill="#5fbcd3"/>
  <path d="m411.79 450.56c22.112-14.859 72.651-26.085 94.921-10.368 7.1285 4.9927 17.459 15.787 17.459 15.787l-22.201-10.234c-28.375-12.536-47.284 7.4745-76.546 19.202-15.184 5.869-20.363-7.136-13.632-14.388z" fill="#362c22"/>
  <path d="m289.27 450.56c-22.112-14.859-72.651-26.085-94.921-10.368-7.1285 4.9927-17.459 15.787-17.459 15.787l22.201-10.234c28.375-12.536 47.284 7.4745 76.546 19.202 15.184 5.869 20.363-7.136 13.632-14.388z" fill="#362c22"/>
  <path transform="matrix(.40004 0 0 -1 347.18 1840.4)" d="m-222.68 941.88-17.87-30.953-17.87-30.953h35.741l35.741-1e-5 -17.87 30.953z" fill="#00aad4"/>
  <path d="m252.54 728.86c-11.858 2.3742-28.946-2.754-34.197 5.2376-15.987 29.48 35.634 59.029 40.109 92.229 3.2216 23.901-14.937 47.955-10.272 71.619 4.5319 22.987 24.011 52.298 35.654 60.666 0 0-13.506-43.95-14.735-67.218-1.272-24.082 11.964-47.563 10.272-71.619-2.2244-31.618-20.47-44.55-26.549-91.342" fill="#362c22"/>
  <g fill="#362c22">
   <path d="m165.99 490.86c16.903-13.143 39.285-19.175 60.648-16.229 18.67 2.5516 36.032 11.575 51.26 23.012 8.5901 6.3515 16.621 13.487 23.959 21.296-7.0685-8.0542-14.874-15.484-23.294-22.165-15.061-11.769-32.525-21.328-51.608-24.308-21.887-3.3917-45.126 2.3918-62.958 15.786z"/>
   <path d="m167.26 489.87c-0.59448 0.54724-1.2184 1.0696-1.8696 1.5655-2.3079-2.0871-3.872-4.7957-4.5339-7.6074-0.5742-2.6658-0.33713-5.3714 0.54814-7.7054-0.0918 2.499 0.5573 4.8993 1.7264 6.8461 1.1924 2.0913 2.984 3.7064 4.9599 4.6398-0.31069 0.73618-0.58834 1.4906-0.83095 2.2613z"/>
   <path d="m171.26 485.87c-0.59448 0.54724-1.2184 1.0696-1.8696 1.5655-2.3079-2.0871-3.872-4.7957-4.5339-7.6074-0.5742-2.6658-0.33713-5.3714 0.54814-7.7054-0.0918 2.499 0.5573 4.8993 1.7264 6.8461 1.1924 2.0913 2.984 3.7064 4.9599 4.6398-0.31069 0.73618-0.58834 1.4906-0.83095 2.2613z"/>
  </g>
  <g transform="matrix(-1 0 0 1 701.66 .17986)" fill="#362c22">
   <path d="m165.97 490.88c17.071-12.882 39.31-18.874 60.683-16.241 18.892 2.3058 36.66 11.039 51.941 22.689 8.4672 6.353 16.28 13.609 23.263 21.616-6.7036-8.2418-14.288-15.792-22.591-22.48-15.138-12.002-33.017-21.266-52.326-23.995-21.882-3.0677-44.946 2.6741-62.923 15.774z"/>
   <path d="m167.26 489.87c-0.59448 0.54724-1.2184 1.0696-1.8696 1.5655-2.3079-2.0871-3.872-4.7957-4.5339-7.6074-0.5742-2.6658-0.33713-5.3714 0.54814-7.7054-0.0918 2.499 0.5573 4.8993 1.7264 6.8461 1.1924 2.0913 2.984 3.7064 4.9599 4.6398-0.31069 0.73618-0.58834 1.4906-0.83095 2.2613z"/>
   <path d="m171.26 485.87c-0.59448 0.54724-1.2184 1.0696-1.8696 1.5655-2.3079-2.0871-3.872-4.7957-4.5339-7.6074-0.5742-2.6658-0.33713-5.3714 0.54814-7.7054-0.0918 2.499 0.5573 4.8993 1.7264 6.8461 1.1924 2.0913 2.984 3.7064 4.9599 4.6398-0.31069 0.73618-0.58834 1.4906-0.83095 2.2613z"/>
  </g>
  <path d="m324.41 566.97s-17.048 16.668-12.99 22.887 12.252-3.353 18.144-1.8557c6.3742 1.6197 10.295 8.1904 16.872 8.2181 6.0426 0.0255 8.6589-5.5246 14.468-7.1872 5.8841-1.6839 14.028 6.8044 18.351 0.61855s-10.928-22.887-10.928-22.887 8.3845 12.52 4.6361 16.701-9.8228-2.3983-14.483-1.3286c-5.1308 1.1777-7.4752 7.3659-12.18 7.8204-5.3627 0.51811-9.4649-6.0605-14.895-7.1665-4.7702-0.97148-9.7428 4.7098-12.769 0.67466s5.7732-16.495 5.7732-16.495z" fill="#d9af8f"/>
  <path d="m302.42 658.52c16.898-1.9622 14.606-19.786 43.198-6.2659 25.5-13.566 30.631 3.7121 42.735 7.3072l-43.21 2.4208c-17.289-5.2041-26.81 6.794-42.723-3.4621z" fill="#ff8080"/>
  <path d="m301.87 659.76c28.815 28.594 63.718 24.769 87.889-0.58318z" fill="#ff8080"/>
  <path d="m291.01 654.05c6.7451 4.4132 18.472 6.6612 27.824 7.5793 10.496 1.0305 16.164 3.4978 26.71 3.7162 11.399 0.23606 26.906-1.8753 37.964-5.0635 7.1514-2.062 13.731-5.517 19.881-9.6107-6.9562 5.9848-17.943 12.278-27.032 14.102-16.205 3.2526-20.129 3.8378-31.668 2.849-13.24-1.1345-32.36-5.2559-41.976-7.7013-2.6068-0.66292-9.541-4.2745-11.702-5.8711z" fill="#f55"/>
  <g transform="matrix(.45081 .11754 -.13405 .6253 279.14 198.41)" fill="#d9af8f">
   <path d="m801.3 284.28c6.3931 0.46624 11.082 5.3991 15.79 9.1976 13.079 12.302 19.184 32.367 12.982 49.534-3.4134 9.9547-10.02 19.081-19.271 24.328 3.5028-13.184 5.9548-21.581 6.445-32.562 0.38584-8.6439-0.41684-20.213-2.7752-25.854-2.7598-7.1065-5.1812-14.627-10.487-20.324-0.79319-1.3961-3.0262-2.5222-2.6825-4.3206z"/>
   <path d="m774.04 331.57c-0.51195-0.34516-0.21081-2.901 1.5569-6.643 1.7575-3.7203 4.994-8.5456 10.182-12.519 3.2581-2.4926 7.1588-4.5402 11.6-5.7608 3.6706-1.0087 7.3208-1.3446 10.788-1.1502 7.0587 0.40005 12.856 2.9438 16.643 5.393 3.8066 2.4617 5.5415 4.7182 5.2637 5.3005-0.32589 0.68314-2.6174-0.34015-6.3948-1.5881-3.7974-1.2545-8.6121 0.50057-14.72 0.58168-14.876-0.17155-29.833 13.879-34.919 16.385z"/>
  </g>
  <g transform="matrix(-.45081 .11754 .13405 .6253 413.73 198.41)" fill="#d9af8f">
   <path d="m801.3 284.28c6.3931 0.46624 11.082 5.3991 15.79 9.1976 13.079 12.302 19.184 32.367 12.982 49.534-3.4134 9.9547-10.02 19.081-19.271 24.328 3.5028-13.184 5.9548-21.581 6.445-32.562 0.38584-8.6439-0.41684-20.213-2.7752-25.854-2.7598-7.1065-5.1812-14.627-10.487-20.324-0.79319-1.3961-3.0262-2.5222-2.6825-4.3206z"/>
   <path d="m774.04 331.57c-0.51195-0.34516-0.21081-2.901 1.5569-6.643 1.7575-3.7203 4.994-8.5456 10.182-12.519 3.2581-2.4926 7.1588-4.5402 11.6-5.7608 3.6706-1.0087 7.3208-1.3446 10.788-1.1502 7.0587 0.40005 12.856 2.9438 16.643 5.393 3.8066 2.4617 5.5415 4.7182 5.2637 5.3005-0.32589 0.68314-2.6174-0.34015-6.3948-1.5881-3.7974-1.2545-8.6121 0.50057-14.72 0.58168-14.876-0.17155-29.833 13.879-34.919 16.385z"/>
  </g>
  <path d="m431.55 300.06-263.6 93.309-71.148 141.13c5.7503 10.299 10.773 26.087 20.995 25.952 9.9996 33.216 31.063 64.745 56.569 91.268-74.698-93.876-56.56-139.78 6.2475-230.28 36.505-41.614 109.58-34.006 164.37-51.01 33.035-10.252 80.908-43.856 81.649-59.381 3.1056 20.122 2.3094 47.612 22.851 58.432 141.58 74.574 136.93 168.75 76.359 275.25 32.159-23.936 64.852-99.485 58.144-121.24-7.8135-25.338 2.7748-32.881-6.2563-33.602 9.8643-36.711-11.198-52.308-15.258-93.196l-89.897-46.186z" fill="#d9af8f"/>
  <path d="m442.06 260.61c-6.0094-12.178-21.324-18.774-34.639-21.443-20.474-4.1039-41.874 3.8338-61.856 9.8969-49.792 15.109-91.033 53.99-141.86 65.155-54.291 11.926-87.305 76.826-91.368 144.37-2.6066 43.332-24.497 89.751-32.343 108 0 0 29.014-29.644 40.134-46.981 18.49-28.828 18.367-69.617 43.168-93.235 42.957-40.908 99.544-51.584 164.94-66.794 29.301-7.561 57.641-20.646 82.474-37.938 10.848-7.5538 22.381-16.096 28.041-28.041 4.7326-9.9868 8.1895-23.079 3.299-32.99z" fill="#5b5148"/>
  <path d="m432.16 316.69c-1.5518-24.561-14.762-68.238 19.794-59.381 39.391 10.096 34.607 63.714 59.381 81.649 32.619 23.614 64.197 43.117 85.773 76.701 11.83 36.978-10.31 66.676-28.041 97.32 2.8985-24.669 6.3954-50.119-4.9485-70.928-20.869-38.283-75.774-45.763-104.74-78.351-12.03-13.533-21.194-30.886-27.216-47.01z" fill="#5b5148"/>
  <path transform="matrix(.40004 0 0 -1 525.18 1840.4)" d="m-222.68 941.88-17.87-30.953-17.87-30.953h35.741l35.741-1e-5 -17.87 30.953z" fill="#00aad4"/>
  <path d="m326 651.13c-1.4655 1.927-5.8094 4.3514-1.458 9.9141 0 0 13.72 3.1218 20.703 3.2075 7.5464 0.0927 22.452-2.9159 22.452-2.9159 1.3301-4.8292 1.9222-8.8455-0.58318-9.9141-8.6497-3.6891-11.55-0.022-21.578 5.5402-8.5894-4.0891-11.206-9.4069-19.537-5.8318z" fill="url(#f)" opacity=".97"/>
  <path d="m367.7 656.09a3.6449 2.9159 0 0 1 -3.4984 2.9136 3.6449 2.9159 0 0 1 -3.7796 -2.6793 3.6449 2.9159 0 0 1 3.1946 -3.1289 3.6449 2.9159 0 0 1 4.0364 2.4278" fill="#fff"/>
  <path d="m327.16 666.59c13.228 6.7688 25.941 6.0569 38.49 1.1059l-6.9982 6.4141c-5.214 4.7788-20.534 6.9163-25.952-0.22118-1.8467-2.4329-5.5402-7.2988-5.5402-7.2988z" fill="url(#g)"/>
  <path transform="matrix(.92989 -.36784 .36784 .92989 0 0)" d="m87.483 756.87a5.1028 2.2452 0 0 1 -4.8977 2.2434 5.1028 2.2452 0 0 1 -5.2914 -2.0631 5.1028 2.2452 0 0 1 4.4724 -2.4093 5.1028 2.2452 0 0 1 5.651 1.8694" fill="#fff"/>
  <path d="m473.55 232.68c0.38169-0.86861 6.0591 0.57844 15.735 2.5302 3.8246 0.76848 10.561 2.081 16.061 3.4178 5.0233 1.2174 10.796 2.8627 16.609 5.261h1e-5c5.457 2.2541 11.097 5.2816 16.446 9.306 5.5906 4.2234 10.705 9.4238 15.133 15.468 1.6697 2.2825 3.2363 4.6582 4.7058 7.1193 3.1918 5.3455 5.7821 10.855 7.9111 16.27 8.2056 20.912 10.948 41.644 11.897 55.278 0.98253 14.124 0.25776 22.619-0.85251 22.712-1.3198 0.11082-2.8654-8.2061-5.5441-21.87-2.5392-12.952-6.5684-33.246-14.614-52.426-2.0928-4.9968-4.5135-10.034-7.3804-14.846-1.3212-2.2178-2.7117-4.3451-4.1806-6.3775-3.8673-5.3598-8.2204-9.9962-12.938-13.794-4.4928-3.634-9.368-6.5363-14.149-8.8565h-1e-5c-5.0828-2.4685-10.445-4.4332-15.142-6.053-6.8647-2.3621-10.033-3.2765-15.476-5.2992-9.626-3.5691-14.649-6.8662-14.221-7.841z" fill="#5b5148"/>
  <path d="m485.21 255.74c0.91049-0.87075 7.3338 3.3415 17.81 7.8658 4.6727 1.9828 11.485 4.8462 17.455 9.2493 3.8096 2.8822 7.2517 6.4113 10.239 10.504 2.3902 3.2747 4.3373 6.7016 5.9002 10.104v1e-5c5.1101 11.113 7.1256 22.065 7.8304 29.338 0.72739 7.5043 0.20998 12.062-0.9173 12.251-1.2328 0.20739-2.9211-3.9911-5.2915-10.92-2.204-6.4424-5.5349-16.98-10.415-26.383v-1e-5c-1.4986-2.8789-3.2213-5.7735-5.1991-8.5118-2.4771-3.4296-5.173-6.3641-8.1135-8.7785-4.281-3.6252-10.883-7.2521-15.12-9.9104-10.939-6.7301-15.407-13.635-14.179-14.809z" fill="#5b5148"/>
  <path d="m447.88 276.73c2.8045 0.18098-0.71404 14.383 7.2235 35.356v1e-5c2.8207 7.5279 7.3613 15.507 14.095 22.923 5.396 5.9672 11.804 11.195 19.31 16.771 6.2623 4.6311 14.055 9.9786 20.87 15.58 1.8896 1.5695 3.9001 3.0404 6.0174 4.4449 5.2277 3.4678 11.021 6.468 16.653 9.3224 9.2251 4.6324 17.307 8.3524 25.729 13.443 8.7289 5.2176 16.069 11.239 21.387 18.708 2.9795 4.2372 5.04 8.7127 6.3064 13.089 1.661 5.7967 1.9653 11.345 1.7044 15.986-0.80528 13.976-1.781 22.161-2.8322 22.161s-2.0269-8.1848-2.8322-22.161c-0.26041-4.1892-0.99277-9.0494-2.7848-13.772-1.3418-3.5678-3.3211-7.1636-5.9913-10.519-4.7383-6.0446-11.366-10.818-19.615-15.519-8.1557-4.5918-15.808-7.8567-25.452-12.562-5.8021-2.804-11.952-5.9639-17.801-9.8635-2.3626-1.5753-4.6518-3.2547-6.8504-5.0676-6.1879-5.1561-14.08-10.749-20.325-15.59-7.638-5.8936-14.395-11.848-20.122-18.701-7.1964-8.6418-11.711-17.891-14.182-26.466-6.7162-23.596-0.36633-37.554-0.50808-37.563z" fill="#fff"/>
  <path d="m430.39 279.06c-0.21051 0.49781-4.072-0.56988-11.008-2.9738l-1e-5 -1e-5c-5.5736-1.7384-14.561-4.4942-24.571-6.4184-7.8254-1.49-17.901-2.9512-27.669-1.6556-3.9044 0.51934-7.9204 1.4709-11.505 3.243-3.2154 1.5794-6.222 3.8692-8.4372 6.7912-4.6298 5.9869-10.325 11.422-16.909 16.188-6.3802 4.6196-13.379 8.549-20.89 12.013-15.311 7.0576-31.122 11.799-48.554 16.766-13.172 3.7696-27.507 7.6641-40.932 12.257-3.0255 1.0351-6.0116 2.1067-8.9603 3.2274-16.004 6.117-30.442 13.398-42.161 23.521-18.431 15.675-29.902 38.314-37.834 57.351-2.7654 6.6308-4.0591 13.685-4.4925 20.353-0.4227 6.524-0.13282 15.173-0.21113 21.169-0.11063 9.3537-1.0602 17.391-2.8293 24.593-5.0869 20.543-13.815 29.166-13.787 29.181-1.6157-0.87951 5.4763-10.431 8.8249-30.219 1.1811-6.9036 1.5941-14.467 1.2649-23.477-0.22177-5.886-0.89256-14.329-0.72215-21.57 0.17364-7.3364 1.3685-15.268 4.3036-23.054 7.4632-19.9 19.095-43.847 39.146-61.618 12.854-11.234 28.275-19.256 44.945-25.568 3.065-1.1668 6.1571-2.2779 9.2773-3.3454 13.895-4.7537 28.329-8.6154 41.505-12.26 17.462-4.8531 32.772-9.1728 47.457-15.641 7.1656-3.1545 13.74-6.6368 19.669-10.72 6.098-4.2007 11.367-8.9179 15.647-14.117 3.2267-3.91 7.2724-6.7889 11.521-8.6568 4.6612-2.0363 9.4609-2.9973 13.931-3.3588 11.11-0.89911 21.627 1.1954 29.608 3.3143 10.399 2.7394 19.031 6.287 24.525 8.841 6.5996 3.3202 10.056 5.3471 9.8459 5.8449z" fill="#362c22"/>
  <path d="m425.89 294.07c-8e-3 0.0174-0.0187 0.033-0.0333 0.0473-0.014 0.0137-0.0313 0.0259-0.0517 0.0367-0.0407 0.0215-0.0941 0.0375-0.16006 0.048-0.1303 0.0209-0.31036 0.0208-0.53848 8.6e-4 -0.44537-0.0389-1.0822-0.15377-1.8953-0.33163-1.5462-0.33818-3.7786-0.91554-6.6129-1.6143-4.771-1.1753-12.369-3.0021-20.868-3.9758-6.8591-0.77013-15.57-1.2301-23.895 0.70423-3.5271 0.81467-7.1164 2.0662-10.345 3.9713-3.0914 1.828-5.9657 4.2954-8.2592 7.3067-9.9398 11.23-22.976 21.258-38.808 28.868-13.488 6.4512-27.643 10.844-42.901 15.058-3.3947 0.94312-6.7448 1.8535-10.169 2.79-11.385 3.1136-21.954 6.0808-32.215 9.897-14.744 5.4875-27.606 12.363-38.255 21.089-15.324 13.11-25.672 20.675-35.514 32.635-5.8446 7.0687-9.9331 14.04-12.758 20.489-7.3162 16.631-6.5148 27.527-8.3105 27.437-0.13144-7e-3 -2.9929-11.004 3.2639-29.393 2.44-7.1376 6.3316-14.98 12.208-22.908 9.73-13.069 20.641-22.003 35.251-35.095 11.392-9.7824 25.115-17.522 40.649-23.449 10.723-4.0939 21.614-7.2294 33.042-10.354 5.6346-1.5406 4.5935-1.2427 10.155-2.7636 15.148-4.167 28.735-8.1864 41.5-14.065 14.792-6.7727 27.054-15.619 36.554-25.626 3.083-3.7388 6.8182-6.6628 10.796-8.7418 4.1971-2.1991 8.5621-3.5053 12.713-4.2155 9.747-1.6538 19.037-0.56796 26.164 0.86317h1e-5c8.94 1.7745 16.3 4.4519 21.012 6.4718 2.7514 1.1788 4.8311 2.2348 6.2204 3.0597 0.72918 0.43295 1.2661 0.80112 1.6127 1.0965 0.17662 0.15056 0.30269 0.28122 0.37813 0.39131l1e-5 1e-5c0.038 0.0555 0.063 0.1056 0.0751 0.15027 6e-3 0.0224 9e-3 0.0435 8e-3 0.0631-5.4e-4 0.0204-5e-3 0.0392-0.0122 0.0566z" fill="#fff"/>
  <path d="m428.87 222.67c-0.17556-0.0702-0.12512-0.35832-0.3829-0.70251-0.11555-0.17423-0.26561-0.30743-0.51941-0.51484-0.58345-0.47259-1.1405-0.69449-2.3091-1.1864-1.1638-0.46024-2.3548-0.82811-4.033-1.2867-1.667-0.45198-3.4185-0.86275-5.5599-1.3135-4.3403-0.91309-8.8744-1.6918-14.88-2.5595-5.5844-0.80521-11.627-1.5485-18.548-2.2469-12.025-1.2124-26.179-2.2584-41.648-2.4721-6.3667-0.0873-13.055-0.0318-19.84 0.32531-5.5615 0.29541-11.291 0.77176-16.925 1.7112-9.5368 1.5596-19.008 5.3368-28.082 10.777-8.6741 5.2007-16.422 11.366-25.474 17.909-2.8682 2.0818-5.8118 4.1437-8.8322 6.1438-7.0228 4.6504-14.234 8.8155-21.823 12.217-14.191 6.317-28.978 9.6078-43.079 10.785-5.5057 0.44044-10.83 2.2968-15.436 5.0354-5.0124 2.9614-9.3424 7.0581-13.024 11.425v1e-5c-9.0249 10.705-14.627 23.762-18.42 34.779-2.2939 6.7126-3.9747 13.068-5.224 18.868-1.3763 6.402-2.1956 11.867-2.6617 16.802-0.50696 5.5295-0.57632 9.0078-0.24094 12.476 0.17807 1.7605 0.36538 2.8555 0.70467 3.9354 0.53159 1.5244 1.1382 2.3854 1.0834 2.495-0.0861 0.1721-1.3636 0.20339-2.591-1.7534-0.70241-1.0566-1.2876-2.3929-1.7826-4.1843-0.97674-3.4825-1.4666-7.5448-1.4978-13.152-0.0393-5.1392 0.33626-10.948 1.2992-17.636v-1e-5c0.87495-6.0905 2.229-12.8 4.2678-19.931 3.3166-11.698 8.7376-25.757 18.408-38.099l1e-5 -1e-5c3.9743-5.0697 8.9081-9.9416 14.938-13.754 5.6325-3.5429 12.233-5.9819 19.308-6.7054 13.193-1.348 26.912-4.5524 39.877-10.444 6.9504-3.1355 13.667-7.0592 20.367-11.503 2.8806-1.9105 5.7193-3.891 8.5142-5.8982 8.8216-6.3627 16.916-12.675 26.321-18.223 10.022-5.9131 20.728-9.9411 31.651-11.565 6.1552-0.89511 12.23-1.2718 18.003-1.4264 7.0624-0.19272 13.941-0.0535 20.447 0.24977 15.802 0.73532 30.115 2.4232 42.235 4.3525 6.943 1.1045 13.09 2.285 18.664 3.548 5.9228 1.3408 10.686 2.6462 14.923 4.0871 2.1157 0.71916 3.9256 1.4185 5.5656 2.1564h1e-5c1.6301 0.73104 2.9235 1.4248 4.0432 2.1889 1.0864 0.7172 1.839 1.433 2.3186 2.2259 0.2451 0.39327 0.36034 0.79946 0.37667 1.146 0.0281 0.8027-0.43457 0.94212-0.49854 0.91653z" fill="#5b5148"/>
 </g>
</svg>
