<svg width="105.76499023437499px" height="122.021240234375px" xmlns="http://www.w3.org/2000/svg" viewBox="197.1175048828125 13.9893798828125 105.76499023437499 122.021240234375" style="background: rgba(0, 0, 0, 0);" preserveAspectRatio="xMidYMid"><defs><linearGradient id="editing-shiny-gradient" x1="0.04322727117869957" x2="0.9567727288213004" y1="0.2966316784620999" y2="0.7033683215379001" gradientUnits="objectBoundingBox"><stop offset="0.0" stop-color="#ffb200"></stop><stop offset="0.5" stop-color="#e10057"></stop><stop offset="1.0" stop-color="#5A1A80"></stop></linearGradient><linearGradient id="editing-shiny-gradient2" x1="0" x2="0" y1="0" y2="1"><stop offset="0.2" stop-color="#fff" stop-opacity="0.8"></stop><stop offset="0.8" stop-color="#fff" stop-opacity="0"></stop></linearGradient><filter id="editing-shiny2" x="-100%" y="-100%" width="300%" height="300%"><feMorphology operator="erode" radius="2"></feMorphology></filter><filter id="editing-shiny" x="-100%" y="-100%" width="300%" height="300%"><feFlood flood-color="#fff" result="flood"></feFlood><feConvolveMatrix in="SourceGraphic" result="conv" order="8,8" divisor="1" kernelMatrix="0 0 0 0 0 0 0 0 0 0 0 1 1 0 0 0 0 0 0 1 1 0 0 0 0 0 1 0 0 1 0 0 0 0 1 0 0 1 0 0 0 1 0 0 0 0 1 0 0 1 1 0 0 1 1 0 0 0 0 1 1 0 0 0 "></feConvolveMatrix><feOffset dx="0" dy="4" in="conv" result="offset"></feOffset><feComposite operator="in" in="flood" in2="offset" result="comp"></feComposite><feGaussianBlur in="offset" stdDeviation="3" result="shadow"></feGaussianBlur><feColorMatrix in="shadow" type="matrix" values="0.7 0 0 0 0  0 0.7 0 0 0  0 0 0.7 0 0  0 0 0 0.3 0" result="dark-shadow"></feColorMatrix><feOffset dx="0" dy="4" in="dark-shadow" result="offset-shadow"></feOffset><feOffset dx="0" dy="2" in="conv" result="offset-2"></feOffset><feComposite operator="out" in="offset" in2="offset-2" result="edge-diff"></feComposite><feGaussianBlur in="edge-diff" stdDeviation="1" result="edge-blur"></feGaussianBlur><feColorMatrix in="edge-blur" result="edge-shadow" type="matrix" values="0 0 0 0 0  0 0 0 0 0  0 0 0 0 0  0 0 0 0.5 0"></feColorMatrix><feComposite operator="in" in="edge-shadow" in2="offset" result="edge-shadow-in"></feComposite><feOffset dx="0" dy="1" in="edge-shadow-in" result="edge-shadow-final"></feOffset><feMerge result="out"><feMergeNode in="offset-shadow"></feMergeNode><feMergeNode in="comp"></feMergeNode><feMergeNode in="edge-shadow-final"></feMergeNode><feMergeNode in="SourceGraphic"></feMergeNode></feMerge></filter></defs><g filter="url(#editing-shiny)"><g transform="translate(220.30500134825706, 96.51781272888184)"><path d="M14.34 0L0.38 0L8.51-42.24L22.59-42.24L14.34 0ZM51.07 1.28L51.07 1.28L51.07 1.28Q43.33 1.28 43.33-4.74L43.33-4.74L43.33-4.74Q43.39-6.40 43.90-9.22L43.90-9.22L45.06-15.10L45.06-15.10Q46.78-23.42 46.78-25.28L46.78-25.28L46.78-25.28Q46.78-28.99 44.61-28.99L44.61-28.99L44.61-28.99Q40.96-28.99 39.04-19.46L39.04-19.46L35.26 0L22.40 1.28L29.06-32.70L39.55-33.92L38.53-27.65L38.53-27.65Q41.54-33.92 50.75-33.92L50.75-33.92L50.75-33.92Q55.23-33.92 57.12-32.03L57.12-32.03L57.12-32.03Q59.01-30.14 59.01-25.92L59.01-25.92L59.01-25.92Q59.01-21.95 56.96-12.67L56.96-12.67L56.96-12.67Q56-8.51 56-6.94L56-6.94L56-6.94Q56-5.38 56.86-4.48L56.86-4.48L56.86-4.48Q57.73-3.58 59.01-3.46L59.01-3.46L59.01-3.46Q58.37-1.28 56.16 0L56.16 0L56.16 0Q53.95 1.28 51.07 1.28Z" fill="url(#editing-shiny-gradient)"></path></g></g><g filter="url(#editing-shiny2)"><g transform="translate(220.30500134825706, 96.76000022888184)"><path d="M14.34 0L0.38 0L8.51-42.24L22.59-42.24L14.34 0ZM51.07 1.28L51.07 1.28L51.07 1.28Q43.33 1.28 43.33-4.74L43.33-4.74L43.33-4.74Q43.39-6.40 43.90-9.22L43.90-9.22L45.06-15.10L45.06-15.10Q46.78-23.42 46.78-25.28L46.78-25.28L46.78-25.28Q46.78-28.99 44.61-28.99L44.61-28.99L44.61-28.99Q40.96-28.99 39.04-19.46L39.04-19.46L35.26 0L22.40 1.28L29.06-32.70L39.55-33.92L38.53-27.65L38.53-27.65Q41.54-33.92 50.75-33.92L50.75-33.92L50.75-33.92Q55.23-33.92 57.12-32.03L57.12-32.03L57.12-32.03Q59.01-30.14 59.01-25.92L59.01-25.92L59.01-25.92Q59.01-21.95 56.96-12.67L56.96-12.67L56.96-12.67Q56-8.51 56-6.94L56-6.94L56-6.94Q56-5.38 56.86-4.48L56.86-4.48L56.86-4.48Q57.73-3.58 59.01-3.46L59.01-3.46L59.01-3.46Q58.37-1.28 56.16 0L56.16 0L56.16 0Q53.95 1.28 51.07 1.28Z" fill="url(#editing-shiny-gradient2)"></path></g></g><style>text {
  font-size: 64px;
  font-family: Arial Black;
  dominant-baseline: central;
  text-anchor: middle;
}</style></svg>